<svg width="696" height="348" viewBox="0 0 696 348" fill="none" xmlns="http://www.w3.org/2000/svg">
<path fill-rule="evenodd" clip-rule="evenodd" d="M14.0022 101.312C14.0075 109.945 14.9961 129.171 15.4324 129.122C15.6792 129.095 25.9521 129.112 38.2623 129.161L60.6439 129.25V189.625V250H79.0757H97.5076V189.625V129.25H120.83H144.151V113.125V97H79.0757H14L14.0022 101.312ZM210.092 97.7695C203.062 98.8803 191.287 103.251 184.644 107.215C177.464 111.499 168.298 120.133 163.735 126.911C159.152 133.717 155.09 142.738 152.708 151.401C150.794 158.355 150.652 159.892 150.652 173.5C150.652 187.108 150.794 188.645 152.708 195.599C159.087 218.791 173.448 235.861 193.772 244.406C203.445 248.472 209.105 249.408 224.274 249.449C234.445 249.475 239.099 249.174 242.971 248.235C267.134 242.38 284.791 225.949 291.905 202.698C294.937 192.789 296.685 193.749 275.62 193.753L257.376 193.757L254.396 199.565C249.292 209.516 241.694 215.541 231.572 217.664C211.655 221.841 193.882 209.315 188.059 187C186.353 180.461 186.345 166.592 188.043 160C193.768 137.776 211.672 125.163 231.572 129.336C241.654 131.45 249.277 137.516 254.435 147.533L257.376 153.243L275.62 153.247L293.863 153.25L293.857 151.562C293.845 148.553 288.918 135.515 285.516 129.493C281.196 121.843 270.659 111.111 263.394 106.964C256.766 103.179 249.251 100.2 242.813 98.806C236.668 97.4755 216.079 96.823 210.092 97.7695ZM359.761 97.6367C359.544 97.987 349.848 122.709 338.215 152.574C326.582 182.44 313.366 216.363 308.849 227.961C304.331 239.558 300.634 249.261 300.634 249.523C300.634 249.786 309.544 250 320.433 250H340.233L341.59 245.688C342.337 243.315 344.636 236.565 346.7 230.688L350.451 220H380.01H409.568L411.519 225.438C412.593 228.428 414.922 235.094 416.696 240.25L419.92 249.625L439.647 249.825C450.496 249.935 459.378 249.766 459.383 249.45C459.388 249.134 446.101 214.711 429.854 172.955L400.317 97.0338L380.237 97.0173C369.192 97.0075 359.979 97.2865 359.761 97.6367ZM474.877 98.1865C474.27 99.763 474.296 170.162 474.92 214.562C475.394 248.271 475.486 250 476.8 250C478.132 250 478.182 247.235 478.182 173.5C478.182 98.941 478.146 97 476.758 97C475.975 97 475.128 97.534 474.877 98.1865ZM493.364 98.6875C493.588 100.261 494.024 100.39 499.811 100.593L506.018 100.811V118.78V136.75H508.275H510.532V118.75V100.75H516.926C523.246 100.75 523.321 100.728 523.321 98.875V97H508.222H493.124L493.364 98.6875ZM529.34 116.5V136H531.114C532.732 136 532.929 135.596 533.371 131.39C533.636 128.855 533.858 124.72 533.864 122.202C533.878 116.012 534.425 114.382 536.921 113.095C539.84 111.59 543.124 111.723 545.243 113.432C546.939 114.8 547.03 115.354 547.263 125.807L547.507 136.75H549.776H552.047L551.79 125.688C551.573 116.334 551.313 114.3 550.105 112.524C547.171 108.209 540.221 106.832 536.109 109.752L533.994 111.252L533.459 104.127C532.943 97.2693 532.855 97 531.131 97H529.34V116.5ZM564.239 109.635C560.562 111.938 558.451 115.476 558.078 119.959C557.56 126.183 558.399 128.935 561.917 132.553C565.569 136.309 568.971 137.276 573.885 135.957C577.19 135.071 582.309 130.544 581.785 128.974C581.215 127.269 579.092 127.725 576.948 130.013C571.963 135.33 563.793 132.758 562.018 125.312L561.526 123.25H572.141H582.754L582.738 120.812C582.717 117.657 580.481 112.869 577.94 110.534C575.156 107.977 567.669 107.486 564.239 109.635ZM567.248 111.95C565.171 112.832 562.442 116.326 562.442 118.101C562.442 119.378 563.134 119.5 570.341 119.5C577.718 119.5 578.241 119.402 578.241 118.012C578.241 117.193 577.31 115.494 576.172 114.236C573.941 111.769 570.031 110.768 567.248 111.95ZM371.383 160.215C366.68 173.915 362.682 185.547 362.498 186.062C362.236 186.795 366.039 187 379.924 187C389.692 187 397.684 186.837 397.684 186.639C397.684 186.165 380.372 135.742 380.125 135.495C380.021 135.391 376.087 146.516 371.383 160.215ZM505.445 149.712C498.458 152.35 493.715 159.776 493.645 168.183C493.59 174.842 495.406 179.27 499.916 183.476C505.985 189.134 514.768 189.893 521.497 185.34C523.997 183.65 527.967 178.07 527.364 177.096C526.424 175.58 523.687 176.781 520.774 179.988C517.845 183.213 517.282 183.503 513.32 183.83C508.055 184.266 505.353 183.233 501.959 179.489C497.106 174.134 496.693 164.808 501.021 158.312C502.917 155.465 508.359 152.493 511.632 152.517C515.012 152.541 519.854 155.003 521.754 157.662C523.482 160.082 527.083 160.977 527.083 158.987C527.083 157.039 522.718 151.991 519.835 150.605C516.308 148.91 508.801 148.444 505.445 149.712ZM533.101 168.625V188.5H535.358H537.615V168.625V148.75H535.358H533.101V168.625ZM626.389 156.692V164.634L624.074 162.692C616.613 156.432 606.22 161.353 604.197 172.103C603.03 178.302 607.859 186.209 613.782 187.799C617.387 188.767 619.782 188.288 623.52 185.85L626.294 184.042L626.529 186.084C626.714 187.681 627.215 188.177 628.834 188.362L630.903 188.6V168.675V148.75H628.646H626.389V156.692ZM576.383 160.266C575.104 161.198 575.032 162.063 575.502 170.825C576.07 181.412 576.993 184.511 580.207 186.614C583.261 188.612 588.608 188.503 591.597 186.381L593.931 184.725L594.173 186.425C594.347 187.647 594.998 188.192 596.484 188.362L598.553 188.6V173.925V159.25H596.353H594.153L593.908 169.692C593.68 179.42 593.544 180.261 591.911 181.991C589.707 184.326 586.827 184.9 583.747 183.617C580.546 182.283 579.755 179.206 579.75 168.062C579.745 158.777 579.428 158.045 576.383 160.266ZM550.781 161.396C540.269 167.868 541.83 184.202 553.288 187.624C557.895 189 561.316 188.084 565.094 184.462C570.7 179.087 571.263 170.93 566.461 164.653C562.977 160.1 555.431 158.531 550.781 161.396ZM613.837 164.069C608.029 166.657 606.812 177.029 611.739 181.94C615.118 185.309 620.334 184.916 623.599 181.048C630.244 173.176 622.728 160.105 613.837 164.069ZM552.572 164.877C548.331 167.175 546.772 175.365 549.672 180.107C554.273 187.632 564.225 184.577 565.271 175.319C566.194 167.154 559.115 161.333 552.572 164.877ZM501.273 219.457C497.262 229.884 493.981 238.85 493.981 239.382C493.981 239.993 494.734 240.262 496.022 240.112C497.76 239.91 498.34 239.174 499.903 235.188L501.741 230.5H510.96H520.18L521.971 235.188C523.498 239.184 524.062 239.91 525.799 240.112C527.183 240.273 527.835 240.002 527.835 239.266C527.835 237.926 514.345 202.734 513.335 201.438C512.933 200.922 511.695 200.5 510.585 200.5C508.639 200.5 508.298 201.194 501.273 219.457ZM507.514 214.92C505.735 219.983 504.126 224.547 503.939 225.062C503.683 225.771 505.365 226 510.827 226C514.803 226 518.055 225.853 518.055 225.674C518.055 225.17 511.278 206.244 510.997 205.964C510.86 205.827 509.293 209.858 507.514 214.92ZM541.512 212.969C533.984 216.795 532.044 228.646 537.978 234.561C542.736 239.304 548.841 239.846 553.498 235.94L555.883 233.939L555.517 238.347C555.048 243.978 552.81 246.25 547.732 246.25C544.97 246.25 543.885 245.795 541.476 243.625C538.668 241.096 535.358 240.12 535.358 241.822C535.358 243.616 538.761 247.251 541.678 248.571C547.513 251.213 554.921 249.707 558.126 245.227C559.717 243.003 559.822 242.022 560.052 227.258L560.295 211.64L558.171 211.883C556.629 212.058 555.981 212.591 555.805 213.825L555.563 215.525L553.263 213.894C550.223 211.734 544.783 211.306 541.512 212.969ZM572.979 213.438C567.09 216.427 564.348 225.371 567.22 232.224C570.919 241.05 583.938 242.806 589.136 235.18C590.142 233.705 590.789 232.218 590.576 231.875C589.809 230.638 587.28 231.286 586.147 233.01C584.692 235.222 581.928 236.5 578.593 236.5C575.436 236.5 571.74 233.44 570.783 230.033L570.124 227.69L573.994 227.226C576.123 226.971 580.827 226.76 584.447 226.757L591.03 226.75L591.018 223.562C590.982 214.279 581.644 209.038 572.979 213.438ZM597.049 225.95V240.25H599.306H601.562V230.203V220.155L604.222 217.828C607.475 214.98 610.454 214.811 613.369 217.308C615.471 219.108 615.481 219.164 615.726 229.683L615.97 240.25H618.266H620.56L620.237 229.554C619.973 220.777 619.657 218.423 618.483 216.44C616.836 213.661 613.314 211.75 609.838 211.75C607.052 211.75 602.349 213.776 602.24 215.023C602.198 215.492 601.931 215.031 601.646 214C601.282 212.685 600.517 212.054 599.087 211.888L597.049 211.65V225.95ZM635.072 212.256C629.987 213.685 626.136 219.57 626.142 225.904C626.147 230.841 627.511 233.851 631.209 237.088C636.238 241.49 643.786 241.03 648.169 236.053C652.56 231.067 650.052 228.198 645.568 233.078C641.581 237.418 636.944 237.539 633.07 233.403C629.082 229.149 629.285 222.213 633.52 217.991C637.085 214.437 641.055 214.484 645.098 218.125C647.963 220.705 650.463 221.546 650.463 219.928C650.463 218.315 647.967 214.932 645.862 213.693C643.604 212.364 637.556 211.558 635.072 212.256ZM656.739 212.312C656.93 212.622 659.324 218.704 662.06 225.828C667.379 239.678 667.531 240.915 664.343 244.345C663.076 245.708 661.799 246.25 659.851 246.25C657.459 246.25 657.159 246.454 657.37 247.938C657.582 249.423 658.035 249.62 661.155 249.58C667.181 249.503 668.066 248.185 675.484 228.25C682.188 210.234 681.871 211.589 679.308 211.881C677.28 212.112 676.978 212.672 673.42 222.785C671.357 228.649 669.453 233.205 669.19 232.91C668.928 232.616 667.275 228.494 665.517 223.75C661.583 213.125 660.756 211.75 658.301 211.75C657.251 211.75 656.549 212.003 656.739 212.312ZM542.101 217.562C536.382 222.671 538.643 233.389 545.718 234.713C551.258 235.749 555.671 231.38 555.671 224.861C555.671 216.874 547.682 212.577 542.101 217.562ZM574.003 216.829C572.172 218.307 570.717 220.852 570.717 222.575C570.717 223.571 571.992 223.75 579.074 223.75H587.432L586.92 221.688C586.639 220.554 585.523 218.696 584.441 217.562C582.848 215.893 581.819 215.503 579.04 215.517C576.93 215.527 574.989 216.033 574.003 216.829Z" fill="white"/>
</svg>
