<svg width="500" height="500" viewBox="0 0 500 500" fill="none" xmlns="http://www.w3.org/2000/svg">
<path d="M412.56 155.99H80.9502V354.27H412.56V155.99Z" stroke="black" stroke-width="10" stroke-miterlimit="10"/>
<path d="M412.56 186.39H80.9502V323.87H412.56V186.39Z" stroke="black" stroke-width="10" stroke-miterlimit="10"/>
<path d="M116.51 220.03C116.51 220.03 172.27 217.95 212.13 279.14" stroke="black" stroke-width="10" stroke-miterlimit="10"/>
<path d="M280.28 273.2C290.26 273.2 298.35 265.109 298.35 255.13C298.35 245.15 290.26 237.06 280.28 237.06C270.3 237.06 262.21 245.15 262.21 255.13C262.21 265.109 270.3 273.2 280.28 273.2Z" stroke="black" stroke-width="10" stroke-miterlimit="10"/>
<path d="M128.17 164.69V177.68" stroke="black" stroke-width="10" stroke-miterlimit="10" stroke-dasharray="44 44"/>
<path d="M187.46 164.69V177.68" stroke="black" stroke-width="10" stroke-miterlimit="10" stroke-dasharray="44 44"/>
<path d="M246.76 164.69V177.68" stroke="black" stroke-width="10" stroke-miterlimit="10" stroke-dasharray="44 44"/>
<path d="M306.05 164.69V177.68" stroke="black" stroke-width="10" stroke-miterlimit="10" stroke-dasharray="44 44"/>
<path d="M365.35 164.69V177.68" stroke="black" stroke-width="10" stroke-miterlimit="10" stroke-dasharray="44 44"/>
<path d="M128.17 332.61V345.59" stroke="black" stroke-width="10" stroke-miterlimit="10" stroke-dasharray="44 44"/>
<path d="M187.46 332.61V345.59" stroke="black" stroke-width="10" stroke-miterlimit="10" stroke-dasharray="44 44"/>
<path d="M246.76 332.61V345.59" stroke="black" stroke-width="10" stroke-miterlimit="10" stroke-dasharray="44 44"/>
<path d="M306.05 332.61V345.59" stroke="black" stroke-width="10" stroke-miterlimit="10" stroke-dasharray="44 44"/>
<path d="M365.35 332.61V345.59" stroke="black" stroke-width="10" stroke-miterlimit="10" stroke-dasharray="44 44"/>
<path d="M214.72 271.59C214.72 271.59 215.3 271.2 216.43 270.55" stroke="black" stroke-width="10" stroke-miterlimit="10"/>
<path d="M219.7 268.81C226.89 265.24 241.48 259.51 260.94 259.6" stroke="black" stroke-width="10" stroke-miterlimit="10" stroke-dasharray="3.71 3.71"/>
<path d="M262.79 259.63C263.45 259.65 264.12 259.67 264.79 259.7" stroke="black" stroke-width="10" stroke-miterlimit="10"/>
<path d="M116.51 186.39V323.87" stroke="black" stroke-width="10" stroke-miterlimit="10"/>
</svg>
